<svg width="54" height="54" viewBox="0 0 54 54" fill="none" xmlns="http://www.w3.org/2000/svg">
<path d="M44.315 27.0677C44.315 32.0205 42.2309 36.4839 38.8981 39.648C38.8475 39.6986 38.7969 39.7408 38.7463 39.783C35.8606 42.4492 32.0553 44.1536 27.8619 44.3645C27.575 44.373 27.2881 44.3814 27.0013 44.3814C26.7144 44.3814 26.4275 44.373 26.1406 44.3645C21.9472 44.1536 18.1419 42.4492 15.2563 39.783C15.2056 39.7408 15.155 39.6986 15.1044 39.648C11.7716 36.4839 9.6875 32.0205 9.6875 27.0677C9.6875 17.508 17.4416 9.75391 27.0013 9.75391C36.5609 9.75391 44.315 17.508 44.315 27.0677Z" fill="white" stroke="black" stroke-width="3" stroke-miterlimit="10" stroke-linecap="round" stroke-linejoin="round"/>
<path d="M26.9997 28.5697C29.968 28.5697 32.3744 26.1634 32.3744 23.195C32.3744 20.2266 29.968 17.8203 26.9997 17.8203C24.0313 17.8203 21.625 20.2266 21.625 23.195C21.625 26.1634 24.0313 28.5697 26.9997 28.5697Z" fill="white" stroke="black" stroke-width="3" stroke-miterlimit="10" stroke-linecap="round" stroke-linejoin="round"/>
<path d="M38.7478 39.7811C35.8622 42.4473 32.0569 44.1517 27.8634 44.3627C27.5766 44.3711 27.2897 44.3795 27.0028 44.3795C26.7159 44.3795 26.4291 44.3711 26.1422 44.3627C21.9488 44.1517 18.1434 42.4473 15.2578 39.7811C16.4391 35.2839 21.2484 31.9258 27.0028 31.9258C32.7572 31.9258 37.5666 35.2839 38.7478 39.7811Z" fill="white" stroke="black" stroke-width="3" stroke-miterlimit="10" stroke-linecap="round" stroke-linejoin="round"/>
</svg>
