<svg width="37" height="37" viewBox="0 0 37 37" fill="none" xmlns="http://www.w3.org/2000/svg">
<path d="M35 18.5C35 23.22 33.0139 27.4737 29.8377 30.489C29.7895 30.5373 29.7412 30.5775 29.693 30.6177C26.943 33.1586 23.3165 34.7829 19.3202 34.9839C19.0468 34.992 18.7734 35 18.5 35C18.2266 35 17.9532 34.992 17.6798 34.9839C13.6835 34.7829 10.057 33.1586 7.30702 30.6177C7.25877 30.5775 7.21053 30.5373 7.16228 30.489C3.98611 27.4737 2 23.22 2 18.5C2 9.38962 9.38962 2 18.5 2C27.6104 2 35 9.38962 35 18.5Z" stroke="#3B3535" stroke-width="3" stroke-miterlimit="10" stroke-linecap="round" stroke-linejoin="round"/>
<path d="M18.4971 19.9277C21.3259 19.9277 23.6192 17.6345 23.6192 14.8057C23.6192 11.9768 21.3259 9.68359 18.4971 9.68359C15.6682 9.68359 13.375 11.9768 13.375 14.8057C13.375 17.6345 15.6682 19.9277 18.4971 19.9277Z" stroke="#3B3535" stroke-width="3" stroke-miterlimit="10" stroke-linecap="round" stroke-linejoin="round"/>
<path d="M29.6907 30.6189C26.9407 33.1599 23.3142 34.7841 19.3178 34.9852C19.0445 34.9932 18.7711 35.0012 18.4977 35.0012C18.2243 35.0012 17.9509 34.9932 17.6775 34.9852C13.6811 34.7841 10.0547 33.1599 7.30469 30.6189C8.43042 26.3331 13.0138 23.1328 18.4977 23.1328C23.9816 23.1328 28.5649 26.3331 29.6907 30.6189Z" stroke="#3B3535" stroke-width="3" stroke-miterlimit="10" stroke-linecap="round" stroke-linejoin="round"/>
</svg>
