<svg width="22" height="19" viewBox="0 0 22 19" fill="none" xmlns="http://www.w3.org/2000/svg">
<path d="M11.3195 0.156679C5.81983 0.0846373 1.26664 4.08576 1.16958 9.07576C1.07253 14.0657 5.46781 18.184 10.9674 18.2561C16.4671 18.3281 21.0204 14.327 21.1174 9.33707C21.2145 4.34706 16.8191 0.22872 11.3195 0.156679ZM10.9915 17.0172C6.24477 16.9551 2.45119 13.4006 2.53487 9.09365C2.61863 4.78673 6.54851 1.33341 11.2954 1.39551C16.0421 1.45777 19.8357 5.01226 19.752 9.31926C19.6682 13.626 15.7383 17.0794 10.9915 17.0172Z" fill="black"/>
<path d="M12.5586 5.34846C12.2967 5.10308 11.8643 5.0975 11.593 5.33581C11.3215 5.57436 11.3139 5.9666 11.576 6.21214L14.1537 8.62726L6.55504 8.52838C6.17791 8.52352 5.86687 8.79684 5.86021 9.13918C5.85365 9.48135 6.15391 9.7626 6.53103 9.76754L14.13 9.86642L11.459 12.2133C11.1876 12.4517 11.18 12.8441 11.442 13.0895C11.573 13.2122 11.7466 13.2751 11.9214 13.2773C12.0961 13.2796 12.272 13.2214 12.4077 13.1023L16.2649 9.71301C16.3953 9.59853 16.4703 9.44194 16.4735 9.27754C16.4766 9.11315 16.4077 8.95475 16.2819 8.83667L12.5586 5.34846Z" fill="black"/>
</svg>
