<svg width="78" height="86" viewBox="0 0 78 86" fill="none" xmlns="http://www.w3.org/2000/svg">
<g clip-path="url(#clip0)" filter="url(#filter0_d)">
<path d="M20.5512 26.0945C20.2969 26.3484 19.8797 26.3424 19.6366 26.0777C14.2755 20.2404 14.4274 11.1677 20.0922 5.51364C25.7569 -0.140456 34.8472 -0.29201 40.6958 5.05882C40.961 5.30146 40.9671 5.71774 40.7127 5.9718L20.5512 26.0945Z" fill="#FFE07D"/>
<path d="M40.6955 5.057C37.2489 1.90361 32.6766 0.663312 28.3429 1.33182C31.1633 1.76546 33.8832 3.00501 36.1261 5.057C36.3912 5.29963 36.3973 5.71591 36.143 5.96997L18.0586 24.0195C18.5178 24.7381 19.041 25.4278 19.6363 26.0757C19.8794 26.3405 20.2966 26.3464 20.5509 26.0925L40.7123 5.96997C40.9668 5.71591 40.9607 5.29963 40.6955 5.057Z" fill="#FFD064"/>
<path d="M54.3127 75.7032L47.6634 72.3616C47.0974 72.0772 46.7402 71.4979 46.7402 70.8645V55.361C46.7402 54.1308 45.7948 53.0722 44.5659 53.0143C43.2539 52.9525 42.1708 53.998 42.1708 55.2965V70.8645C42.1708 71.4978 41.8136 72.077 41.2476 72.3616L34.5983 75.7032C34.0245 75.9915 34.2297 76.8568 34.8718 76.8568H54.0389C54.6815 76.8568 54.8867 75.9917 54.3127 75.7032Z" fill="#DCEAFC"/>
<path d="M59.5223 15.9732L59.9744 14.6502C60.1416 14.1609 59.7779 13.6523 59.2609 13.6523H29.3136C28.7979 13.6523 28.4343 14.1585 28.5993 14.6473L29.2215 16.4921C30.9952 21.7512 30.5888 27.4672 28.2532 32.5021C27.2106 34.7498 26.6289 37.2516 26.6289 39.8883C26.6289 49.6584 34.6108 57.5788 44.4571 57.5788C54.3034 57.5788 62.2853 49.6586 62.2853 39.8883C62.2853 37.1799 61.6716 34.6138 60.5749 32.3192C58.1268 27.1971 57.6864 21.3452 59.5223 15.9732Z" fill="#ECF5FF"/>
<path d="M60.5784 32.3192C58.1302 27.1971 57.6898 21.3452 59.5257 15.9732L59.9778 14.6502C60.145 14.1609 59.7813 13.6523 59.2643 13.6523H54.6949C55.2118 13.6523 55.5756 14.1609 55.4083 14.6502L54.9562 15.9732C53.1204 21.3452 53.5607 27.1971 56.0089 32.3192C57.1056 34.6137 57.7192 37.1799 57.7192 39.8883C57.7192 48.8905 50.9429 56.3218 42.1758 57.4347C42.9238 57.5298 43.6864 57.5788 44.4605 57.5788C54.3068 57.5788 62.2887 49.6586 62.2887 39.8883C62.2887 37.1799 61.675 34.6138 60.5784 32.3192Z" fill="#DCEAFC"/>
<path d="M53.8302 23.6228C53.8179 23.2261 53.5029 22.9085 53.1066 22.8866C52.2253 22.8378 51.2913 22.8622 50.3178 22.9924C46.545 23.4996 45.0553 25.2116 41.8065 25.9778C40.256 26.344 38.203 26.5196 35.5926 25.9623C35.1571 25.8692 34.7357 26.1661 34.6779 26.6076C34.3294 29.2724 33.5683 31.9071 32.3995 34.4282C31.6044 36.1448 31.1992 37.9818 31.1992 39.8918C31.1992 47.1268 37.1471 53.0122 44.4583 53.0122C51.7694 53.0122 57.7173 47.1268 57.7173 39.8918C57.7173 37.93 57.2923 36.0474 56.4531 34.2927C54.8203 30.8795 53.9431 27.253 53.8302 23.6228Z" fill="#FFE07D"/>
<path d="M36.4902 26.1292C36.1976 26.0829 35.8982 26.0282 35.5902 25.9624C35.2633 25.8926 34.9445 26.0422 34.7812 26.308C35.3998 26.2841 35.9689 26.2196 36.4902 26.1292Z" fill="#F7E782"/>
<path d="M56.4514 34.2927C54.8186 30.8794 53.9414 27.253 53.8286 23.6228C53.8162 23.2261 53.5012 22.9085 53.1049 22.8866C52.2236 22.8378 51.2896 22.8622 50.3162 22.9924C49.8894 23.0498 49.4929 23.1233 49.1187 23.2084C49.2024 23.3261 49.2542 23.4681 49.2591 23.6228C49.3718 27.253 50.2492 30.8794 51.882 34.2927C52.7212 36.0474 53.1462 37.93 53.1462 39.8918C53.1462 46.3559 48.3979 51.7422 42.1719 52.8166C42.9144 52.9447 43.6777 53.0122 44.4566 53.0122C51.7677 53.0122 57.7156 47.1268 57.7156 39.8918C57.7156 37.9301 57.2907 36.0474 56.4514 34.2927Z" fill="#FFD064"/>
<path d="M63.4296 39.8916C63.4296 37.0717 62.8166 34.3592 61.6076 31.8299C59.241 26.8786 58.8849 21.3802 60.6049 16.3474C60.9572 15.3163 61.5118 14.2957 60.8052 13.3076C60.4495 12.8103 59.8721 12.5134 59.2602 12.5134H49.7995L50.5595 8.81705C50.6767 8.24769 51.006 7.7545 51.4867 7.42808L59.333 2.10223C59.855 1.74794 59.991 1.03755 59.6368 0.515563C59.2825 -0.00642151 58.5721 -0.142439 58.0501 0.211846L50.2036 5.5377C49.2275 6.20027 48.5593 7.20144 48.3217 8.3569L47.4671 12.5134H35.777L41.5186 6.78211C41.8613 6.44154 42.0518 5.9689 42.0418 5.48515C42.0317 5.00307 41.8221 4.54049 41.4675 4.21652C35.121 -1.58943 25.3777 -1.37436 19.2857 4.70621C19.2853 4.70667 19.285 4.70712 19.2845 4.70743C19.2844 4.70758 19.2844 4.70758 19.2842 4.70773C19.2841 4.70789 19.2839 4.70804 19.2837 4.70819C13.1924 10.7901 12.9779 20.5161 18.7988 26.8545C19.1235 27.2056 19.585 27.4129 20.0647 27.4228C20.077 27.4231 20.0892 27.4231 20.1015 27.4231C20.5699 27.4231 21.0262 27.2356 21.3598 26.9039L28.8234 19.4543C29.6276 23.6303 29.0823 28.0071 27.2188 32.0244C26.778 32.9747 26.4156 33.9678 26.1414 34.9764C25.976 35.5852 26.3355 36.2129 26.9443 36.3783C27.5532 36.5434 28.1808 36.1843 28.3462 35.5755C28.5865 34.6908 28.9046 33.8196 29.2913 32.9858C31.6741 27.8493 32.1125 22.1746 30.5526 16.9146C30.3993 16.3975 30.0384 15.3288 29.8564 14.7979C30.2999 14.6908 46.52 14.9103 46.9972 14.7979L45.2226 23.4288C44.0328 23.9928 42.9773 24.5278 41.5442 24.8663C39.7506 25.2901 37.8819 25.2831 35.8316 24.8455C35.3123 24.7346 34.7667 24.8464 34.334 25.1524C33.9016 25.4579 33.6142 25.9345 33.5456 26.4599C33.2093 29.0311 32.475 31.5505 31.3633 33.9486C30.4966 35.8196 30.0572 37.8194 30.0572 39.8922C30.0572 47.7569 36.5176 54.1552 44.4585 54.1552C52.3995 54.1552 58.86 47.7569 58.86 39.8922C58.86 37.7589 58.3969 35.7094 57.4839 33.8001C57.2044 33.216 56.944 32.6158 56.7099 32.0165C56.4803 31.4287 55.8176 31.1381 55.2303 31.3681C54.6426 31.5976 54.3522 32.26 54.5819 32.8477C54.8364 33.4993 55.1194 34.1515 55.423 34.786C56.1877 36.3849 56.5754 38.1028 56.5754 39.8922C56.5754 46.4969 51.1399 51.8705 44.4587 51.8705C37.7775 51.8705 32.342 46.4971 32.342 39.8922C32.342 38.1533 32.7102 36.4767 33.4363 34.9092C34.5873 32.4267 35.3666 29.8219 35.7551 27.1608C37.9661 27.5817 40.0883 27.5579 42.069 27.0901C43.0556 26.8576 43.8857 26.5474 44.65 26.2142L41.4418 41.8167C41.3148 42.4348 41.7126 43.0386 42.3306 43.1658C42.4082 43.1816 42.4856 43.1894 42.5619 43.1894C43.0927 43.1894 43.5686 42.8173 43.6796 42.2769L47.226 25.0292C48.1569 24.6339 49.1631 24.3008 50.4697 24.1252C51.2002 24.0274 51.9497 23.9899 52.702 24.0129C52.7536 25.1784 52.8817 26.351 53.0832 27.5032C53.1918 28.1248 53.7834 28.5411 54.4053 28.4317C55.0268 28.3231 55.4426 27.7311 55.3339 27.1096C55.1305 25.9469 55.009 24.7619 54.9724 23.588C54.9416 22.593 54.1667 21.8015 53.1699 21.7463C52.1602 21.6907 51.1494 21.7291 50.166 21.8607C49.2575 21.9829 48.4745 22.1691 47.7684 22.3917L49.3297 14.798H58.7198L58.4429 15.6085C56.5286 21.2103 56.9204 27.3211 59.5464 32.8151C60.6072 35.0343 61.145 37.4153 61.145 39.8915C61.145 49.0161 53.6598 56.4396 44.4592 56.4396C40.1113 56.4396 35.995 54.7903 32.8684 51.7955C29.7522 48.8104 27.947 44.807 27.7852 40.5225C27.7615 39.8921 27.2354 39.4041 26.6005 39.424C25.9701 39.4479 25.4783 39.9783 25.5022 40.6087C25.6863 45.4891 27.7412 50.0479 31.288 53.4454C34.0067 56.0495 37.3834 57.7573 41.0316 58.4168V70.8654C41.0316 71.0683 40.9191 71.2509 40.7379 71.342L34.0903 74.6833C33.3613 75.0489 32.9834 75.8584 33.1712 76.652C33.359 77.4456 34.0597 78 34.875 78H54.0424C54.8585 78 55.5597 77.4454 55.7475 76.6515C55.9353 75.8583 55.5575 75.0489 54.8294 74.6838L48.1807 71.3426C47.9988 71.2509 47.8858 71.068 47.8858 70.8654V58.4159C56.7161 56.8099 63.4296 49.1149 63.4296 39.8916ZM20.1279 7.16366L27.2765 14.2977L27.3501 14.5156L17.1227 13.3684C17.5658 11.1373 18.5688 8.99632 20.1279 7.16366ZM20.1262 24.9073C17.8502 22.2322 16.7698 18.9197 16.8653 15.6385L28.1448 16.9038L20.1262 24.9073ZM28.7229 12.5134L21.7452 5.55004C23.5824 3.99368 25.7285 2.99266 27.965 2.55095L29.0866 12.5136H28.7229V12.5134ZM32.5429 12.5134H31.3858L30.2354 2.2946C33.5223 2.1991 36.841 3.27643 39.5217 5.54699L32.5429 12.5134ZM51.7936 75.7153H37.1247L41.7639 73.3835C42.7214 72.9021 43.3162 71.9372 43.3162 70.8655V58.6895C43.6953 58.7119 44.0762 58.7243 44.4589 58.7243C44.8424 58.7243 45.2229 58.7117 45.6009 58.6893V70.8655C45.6009 71.936 46.1952 72.9005 47.1533 73.3835L51.7936 75.7153Z" fill="black"/>
</g>
<defs>
<filter id="filter0_d" x="-4" y="0" width="86" height="86" filterUnits="userSpaceOnUse" color-interpolation-filters="sRGB">
<feFlood flood-opacity="0" result="BackgroundImageFix"/>
<feColorMatrix in="SourceAlpha" type="matrix" values="0 0 0 0 0 0 0 0 0 0 0 0 0 0 0 0 0 0 127 0" result="hardAlpha"/>
<feOffset dy="4"/>
<feGaussianBlur stdDeviation="2"/>
<feComposite in2="hardAlpha" operator="out"/>
<feColorMatrix type="matrix" values="0 0 0 0 0 0 0 0 0 0 0 0 0 0 0 0 0 0 0.25 0"/>
<feBlend mode="normal" in2="BackgroundImageFix" result="effect1_dropShadow"/>
<feBlend mode="normal" in="SourceGraphic" in2="effect1_dropShadow" result="shape"/>
</filter>
<clipPath id="clip0">
<rect width="78" height="78" fill="white"/>
</clipPath>
</defs>
</svg>
