<svg width="74" height="74" viewBox="0 0 74 74" fill="none" xmlns="http://www.w3.org/2000/svg">
<g clip-path="url(#clip0)">
<path d="M37 74C57.4345 74 74 57.4345 74 37C74 16.5655 57.4345 0 37 0C16.5655 0 0 16.5655 0 37C0 57.4345 16.5655 74 37 74Z" fill="#DB9236"/>
<path d="M36.9992 61.2406C50.3873 61.2406 61.2406 50.3873 61.2406 36.9992C61.2406 23.611 50.3873 12.7578 36.9992 12.7578C23.611 12.7578 12.7578 23.611 12.7578 36.9992C12.7578 50.3873 23.611 61.2406 36.9992 61.2406Z" fill="#FFE9B7"/>
<path d="M46.5673 61.242C45.3147 61.2482 44.1188 60.7212 43.2782 59.7926C42.5059 58.9387 42.1347 57.796 42.2575 56.6514L43.1748 36.1419C41.402 35.2048 40.1513 33.5124 39.7759 31.5424C39.3643 29.2027 39.5089 26.7988 40.1982 24.5252L41.0173 21.8293C42.0578 18.7669 45.3838 17.1279 48.4462 18.1684C50.1689 18.7537 51.5218 20.1066 52.1071 21.8293L52.9262 24.5252C53.6155 26.7988 53.7602 29.2027 53.3485 31.5424C52.9736 33.5122 51.7234 35.2046 49.9509 36.1419L50.8734 56.7369C50.9783 57.8537 50.6077 58.9629 49.8527 59.7926C49.013 60.7201 47.8185 61.2472 46.5673 61.242ZM46.5673 20.4144C45.1726 20.382 43.9175 21.2563 43.4644 22.5757L42.6453 25.2729C42.0734 27.1603 41.9532 29.1559 42.2945 31.0984C42.5707 32.5137 43.5793 33.6749 44.9419 34.1465C45.4591 34.3409 45.7922 34.8461 45.7674 35.3981L44.8054 56.8517C44.7408 57.3002 44.8781 57.7544 45.1805 58.0918C45.9487 58.8524 47.186 58.8524 47.9542 58.0918C48.2422 57.7796 48.3816 57.3584 48.3369 56.9359L47.3673 35.3981C47.3424 34.8461 47.6756 34.3409 48.1928 34.1465C49.5554 33.6749 50.564 32.5137 50.8402 31.0984C51.1813 29.1559 51.0615 27.1606 50.4906 25.2729L49.6715 22.5757C49.2182 21.2558 47.9625 20.3815 46.5673 20.4144Z" fill="black"/>
<path d="M27.4313 61.2426C25.0496 61.2413 23.12 59.3095 23.1213 56.9278C23.1213 56.8575 23.123 56.7873 23.1265 56.7171L24.2149 34.9522L20.7879 31.5239C20.5487 31.2847 20.4141 30.9603 20.4141 30.6219V19.1391C20.4141 18.4345 20.9853 17.8633 21.6899 17.8633C22.3945 17.8633 22.9658 18.4345 22.9658 19.1391V30.0937L26.4195 33.5475C26.675 33.8021 26.8109 34.153 26.7934 34.5133L25.677 56.8409C25.6504 57.3223 25.8252 57.7933 26.1593 58.141C26.8576 58.8456 27.9951 58.8507 28.6998 58.1521C28.7037 58.1485 28.7073 58.1446 28.711 58.141C29.0451 57.7933 29.2199 57.3223 29.1933 56.8409L28.0692 34.5133C28.0514 34.1532 28.1868 33.8023 28.4418 33.5475L31.8968 30.0937V19.1391C31.8968 18.4345 32.4681 17.8633 33.1727 17.8633C33.8773 17.8633 34.4485 18.4345 34.4485 19.1391V30.6219C34.4485 30.9603 34.3139 31.2847 34.0747 31.5239L30.6478 34.9522L31.7361 56.7171C31.8538 59.096 30.0208 61.1196 27.642 61.2373C27.5718 61.2408 27.5016 61.2426 27.4313 61.2426Z" fill="black"/>
<path d="M25.518 30.6219C24.8135 30.6219 24.2422 30.0506 24.2422 29.346V19.1391C24.2422 18.4345 24.8135 17.8633 25.518 17.8633C26.2226 17.8633 26.7939 18.4345 26.7939 19.1391V29.346C26.7939 30.0506 26.2226 30.6219 25.518 30.6219Z" fill="black"/>
<path d="M29.3462 30.6219C28.6416 30.6219 28.0703 30.0506 28.0703 29.346V19.1391C28.0703 18.4345 28.6416 17.8633 29.3462 17.8633C30.0508 17.8633 30.622 18.4345 30.622 19.1391V29.346C30.622 30.0506 30.0508 30.6219 29.3462 30.6219Z" fill="black"/>
<path d="M64.9961 21.8801C111.529 -43.2661 124.886 -124.393 184.679 -179.478C218.541 -210.674 244.298 -250.214 274.845 -284.605C311.161 -325.491 348.171 -366.791 390.687 -401.457C431.934 -435.089 480.667 -460.182 525.128 -489.4C542.623 -500.896 559.028 -513.385 577.084 -524.172C588.44 -530.956 620.791 -539.249 625.402 -553.082" stroke="white" stroke-width="3" stroke-linecap="round"/>
</g>
<defs>
<clipPath id="clip0">
<rect width="74" height="74" fill="white"/>
</clipPath>
</defs>
</svg>
