<svg width="20" height="20" viewBox="0 0 20 20" fill="none" xmlns="http://www.w3.org/2000/svg">
<path d="M6.79688 17.9357V18.5349C6.7967 18.6298 6.81526 18.7238 6.85148 18.8116C6.88771 18.8993 6.94089 18.9791 7.00799 19.0463C7.07508 19.1134 7.15476 19.1667 7.24248 19.203C7.33019 19.2393 7.42421 19.258 7.51914 19.2579H9.375V17.2267H7.51914C7.42496 17.225 7.33139 17.2421 7.24389 17.277C7.15638 17.3119 7.0767 17.3639 7.00948 17.4298C6.94225 17.4958 6.88883 17.5745 6.85233 17.6614C6.81583 17.7482 6.79698 17.8415 6.79688 17.9357Z" fill="#DFE6E9"/>
<path d="M14.0234 15.5843C14.0216 16.2177 13.7685 16.8244 13.3198 17.2715C12.8711 17.7185 12.2633 17.9693 11.6299 17.9687H9.64844V18.5156H11.6299C12.4083 18.516 13.1551 18.2076 13.7063 17.658C14.2576 17.1084 14.5683 16.3626 14.5703 15.5843V14.0625H14.0234V15.5843Z" fill="#DFE6E9"/>
<path d="M12.7344 15.2205V12.1068C12.7361 11.9943 12.7153 11.8826 12.6731 11.7782C12.631 11.6739 12.5685 11.579 12.4892 11.4992C12.4098 11.4193 12.3154 11.3562 12.2113 11.3134C12.1072 11.2706 11.9956 11.2491 11.8831 11.25H10.7812V16.0938H11.8831C12.3627 16.0938 12.7344 15.7001 12.7344 15.2205Z" fill="#DFE6E9"/>
<path d="M14.0625 10.5132V13.0039C14.0599 13.0779 14.0288 13.148 13.9756 13.1995C13.9224 13.251 13.8514 13.2799 13.7773 13.2801H13.2812V13.866H14.647L14.6498 10.4805C14.4679 10.5013 14.2851 10.5124 14.102 10.5138C14.0868 10.5138 14.0625 10.5133 14.0625 10.5132Z" fill="#DFE6E9"/>
<path d="M3.20312 12.1068V15.2295C3.20504 15.4594 3.29715 15.6793 3.45963 15.842C3.62211 16.0047 3.84197 16.0971 4.07187 16.0992L5.15625 16.1076V11.2501H4.07309C3.95958 11.2487 3.84694 11.2699 3.74165 11.3123C3.63636 11.3547 3.54052 11.4176 3.45964 11.4972C3.37876 11.5769 3.31446 11.6717 3.27043 11.7764C3.22641 11.881 3.20353 11.9933 3.20312 12.1068Z" fill="#DFE6E9"/>
<path d="M1.875 13.0061V10.2216C1.875 6.86777 4.6091 4.13926 7.96285 4.13926C8.32899 4.13941 8.69438 4.17232 9.05465 4.23758C9.09877 4.04247 9.15428 3.8501 9.2209 3.66148C8.80792 3.58279 8.38845 3.54311 7.96805 3.54297C4.28547 3.54297 1.28906 6.53898 1.28906 10.2216V13.8682H2.65625V13.2823H2.15961C2.08564 13.2821 2.01463 13.2532 1.96154 13.2016C1.90845 13.1501 1.87743 13.08 1.875 13.0061Z" fill="#DFE6E9"/>
<path d="M17.1135 5.15551L16.9661 5.11488C16.8627 5.08655 16.7672 5.03473 16.6871 4.96344C16.6069 4.89216 16.5444 4.80334 16.5042 4.70391C16.4939 4.67687 16.4758 4.65348 16.4523 4.63666C16.4287 4.61985 16.4007 4.61035 16.3718 4.60938H10.9375V5.04234L11.5141 5.28566C11.861 5.43355 12.2344 5.50914 12.6115 5.50781H13.9514C13.999 5.5081 14.0458 5.52076 14.0871 5.54455C14.1284 5.56834 14.1628 5.60244 14.1869 5.64353C14.2111 5.68461 14.2242 5.73125 14.2249 5.7789C14.2256 5.82655 14.2139 5.87357 14.191 5.91535L13.5755 7.03125H13.9336L15.1778 5.60156C15.2035 5.57208 15.2352 5.54846 15.2708 5.53229C15.3064 5.51611 15.345 5.50777 15.3841 5.50781H17.0668C17.1106 5.5084 17.1531 5.4929 17.1862 5.46425C17.2193 5.43561 17.2408 5.39581 17.2466 5.35239C17.2523 5.30897 17.242 5.26495 17.2174 5.22866C17.1929 5.19238 17.1559 5.16635 17.1135 5.15551Z" fill="#DFE6E9"/>
<path d="M11.0714 3.55469H10.9375V4.0625H11.3608L11.0714 3.55469Z" fill="#DFE6E9"/>
<path d="M14.0945 0.738281C13.1819 0.738281 12.2898 1.00889 11.5311 1.51588C10.7723 2.02287 10.1809 2.74347 9.83169 3.58657C9.48247 4.42967 9.3911 5.35738 9.56913 6.25241C9.74716 7.14743 10.1866 7.96957 10.8319 8.61485C11.4772 9.26012 12.2993 9.69956 13.1943 9.87759C14.0893 10.0556 15.0171 9.96425 15.8602 9.61503C16.7032 9.26581 17.4239 8.67442 17.9308 7.91566C18.4378 7.15689 18.7084 6.26483 18.7084 5.35227C18.7071 4.12899 18.2205 2.95621 17.3555 2.09122C16.4905 1.22623 15.3177 0.739667 14.0945 0.738281ZM17.7932 5.32746C17.7931 5.42291 17.7741 5.51739 17.7374 5.60551C17.7008 5.69363 17.6471 5.77366 17.5795 5.84102C17.5118 5.90839 17.4316 5.96178 17.3434 5.99813C17.2551 6.03448 17.1606 6.05309 17.0651 6.05289H15.5069L14.2627 7.48258C14.237 7.51206 14.2053 7.53568 14.1697 7.55186C14.1341 7.56803 14.0955 7.57637 14.0564 7.57633H13.1116C13.0643 7.57673 13.0177 7.56473 12.9764 7.54153C12.9352 7.51832 12.9007 7.48473 12.8765 7.44408C12.8523 7.40343 12.8391 7.35714 12.8383 7.30982C12.8376 7.26251 12.8492 7.21581 12.872 7.17438L13.4872 6.05289H12.6098C12.1592 6.05431 11.7129 5.96364 11.2985 5.78645L10.558 5.47207C10.5085 5.45117 10.4661 5.41628 10.436 5.37166C10.406 5.32704 10.3897 5.27464 10.3889 5.22086V3.27855C10.3905 3.20543 10.4208 3.13585 10.4732 3.08486C10.5257 3.03387 10.5961 3.00555 10.6692 3.00602H11.2303C11.2785 3.0049 11.3261 3.01682 11.3682 3.04051C11.4102 3.0642 11.445 3.09879 11.4691 3.14062L11.9853 4.0607H16.3701C16.5082 4.06136 16.6428 4.10331 16.7568 4.18116C16.8708 4.25901 16.9589 4.3692 17.0097 4.49754C17.0179 4.51874 17.0307 4.53782 17.0472 4.55338C17.0638 4.56893 17.0836 4.58055 17.1053 4.58738L17.2527 4.62672C17.4075 4.6676 17.5444 4.75847 17.6421 4.8852C17.7399 5.01193 17.793 5.16741 17.7932 5.32746Z" fill="#DFE6E9"/>
</svg>
