<svg width="40" height="38" viewBox="0 0 40 38" fill="none" xmlns="http://www.w3.org/2000/svg">
<g opacity="0.99">
<path opacity="0.99" d="M20.0645 3.47874C20.4251 3.47874 20.7857 3.5957 21.0781 3.81988L23.4564 5.62304L27.1407 8.43013L28.5052 9.47304L32.287 12.3581L32.3942 12.4361L35.5912 14.863C36.3904 15.4673 36.4781 16.6272 35.7959 17.3582L34.7432 18.4694C34.5873 18.6351 34.3728 18.7228 34.1584 18.7228C33.9927 18.7228 33.8173 18.6741 33.6711 18.5571C33.5248 18.4401 33.3592 18.3914 33.1935 18.3914C32.7841 18.3914 32.3942 18.7228 32.3942 19.1906V33.1579C32.3942 34.0838 31.6437 34.8441 30.708 34.8441H25.3375C24.4116 34.8441 23.6513 34.0936 23.6513 33.1579V26.1499C23.6513 25.2239 22.9008 24.4637 21.9651 24.4637H18.1346C17.2086 24.4637 16.4484 25.2142 16.4484 26.1499V33.1579C16.4484 34.0838 15.6979 34.8441 14.7622 34.8441H9.39168C8.46574 34.8441 7.70548 34.0936 7.70548 33.1579V19.1906C7.70548 18.713 7.31561 18.3914 6.90624 18.3914C6.74055 18.3914 6.57485 18.4401 6.42865 18.5571C6.28244 18.6643 6.11675 18.7228 5.94131 18.7228C5.72688 18.7228 5.51244 18.6351 5.3565 18.4694L4.30384 17.3582C3.61181 16.6272 3.70928 15.4673 4.50852 14.863L7.70548 12.4361L12.959 8.43988L16.6433 5.63279L19.0216 3.82962C19.3432 3.5957 19.7038 3.47874 20.0645 3.47874ZM20.0645 0.554688C19.0605 0.554688 18.0761 0.88608 17.2769 1.49038L14.8986 3.29355L11.2143 6.10064L5.9608 10.0968L2.76384 12.5238C1.72093 13.3133 1.06789 14.5122 0.960673 15.8182C0.853458 17.1243 1.31156 18.4109 2.20827 19.3563L3.26093 20.4675C3.68979 20.9158 4.22586 21.257 4.80093 21.4422V33.1481C4.80093 35.692 6.86725 37.7584 9.41118 37.7584H14.7817C17.3256 37.7584 19.3919 35.692 19.3919 33.1481V27.378H20.737V33.1481C20.737 35.692 22.8033 37.7584 25.3472 37.7584H30.7178C33.2617 37.7584 35.328 35.692 35.328 33.1481V21.4617C35.9128 21.2667 36.4489 20.9353 36.868 20.487L37.9207 19.3758C38.8174 18.4304 39.2755 17.1341 39.1683 15.8377C39.0611 14.5317 38.408 13.3328 37.3651 12.5433L34.1681 10.1163C34.1584 10.1066 34.1389 10.0968 34.1292 10.0871L34.0414 10.0286L30.2792 7.16304L28.9146 6.12013L25.2303 3.31304L22.8521 1.50988C22.0528 0.88608 21.0684 0.554688 20.0645 0.554688Z" fill="#F9DA62"/>
</g>
</svg>
