<svg width="20" height="20" viewBox="0 0 20 20" fill="none" xmlns="http://www.w3.org/2000/svg">
<path d="M15.264 8.94737H6.57977V5C6.57977 3.11363 8.11445 1.57895 10.0008 1.57895C11.8872 1.57895 13.4219 3.11363 13.4219 5V6.57895C13.4219 7.01495 13.7753 7.36842 14.2113 7.36842C14.6473 7.36842 15.0008 7.01495 15.0008 6.57895V5C15.0008 2.243 12.7578 0 10.0008 0C7.24382 0 5.00082 2.243 5.00082 5V8.94737H4.73766C4.01098 8.94737 3.42188 9.53647 3.42188 10.2632V18.6842C3.42188 19.4109 4.01098 20 4.73766 20H15.264C15.9907 20 16.5798 19.4109 16.5798 18.6842V10.2632C16.5798 9.53647 15.9907 8.94737 15.264 8.94737ZM8.42188 13.4211C8.42188 12.549 9.12877 11.8421 10.0008 11.8421C10.8728 11.8421 11.5798 12.549 11.5798 13.4211C11.5798 14.0054 11.2621 14.5152 10.7903 14.7883V17.1053H9.21135V14.7883C8.73951 14.5152 8.42188 14.0054 8.42188 13.4211Z" fill="#DFE6E9"/>
</svg>
