<svg width="20" height="20" viewBox="0 0 20 20" fill="none" xmlns="http://www.w3.org/2000/svg">
<path d="M20.0008 13.5359C20.0008 11.0541 18.577 8.83914 16.4446 7.76172C16.3784 12.5203 12.5203 16.3784 7.76172 16.4446C8.83914 18.577 11.0541 20.0008 13.5359 20.0008C14.6996 20.0008 15.8312 19.6909 16.8254 19.1021L19.9726 19.9726L19.1021 16.8254C19.6909 15.8312 20.0008 14.6996 20.0008 13.5359Z" fill="#DFE6E9"/>
<path d="M15.2734 7.63672C15.2734 3.42575 11.8477 0 7.63672 0C3.42575 0 0 3.42575 0 7.63672C0 9.00909 0.365295 10.3453 1.05896 11.5184L0.0280762 15.2452L3.75504 14.2145C4.92813 14.9081 6.26434 15.2734 7.63672 15.2734C11.8477 15.2734 15.2734 11.8477 15.2734 7.63672ZM6.46484 5.85938H5.29297C5.29297 4.56696 6.3443 3.51562 7.63672 3.51562C8.92914 3.51562 9.98047 4.56696 9.98047 5.85938C9.98047 6.51535 9.70276 7.14584 9.21829 7.58896L8.22266 8.50021V9.41406H7.05078V7.98416L8.42712 6.7244C8.6731 6.49933 8.80859 6.19217 8.80859 5.85938C8.80859 5.21317 8.28293 4.6875 7.63672 4.6875C6.99051 4.6875 6.46484 5.21317 6.46484 5.85938ZM7.05078 10.5859H8.22266V11.7578H7.05078V10.5859Z" fill="#DFE6E9"/>
</svg>
