<svg width="10" height="10" viewBox="0 0 10 10" fill="none" xmlns="http://www.w3.org/2000/svg">
<g clip-path="url(#clip0)">
<path d="M5.63463 1.1462L6.68285 3.27017C6.75574 3.41789 6.89668 3.52025 7.05971 3.5439L9.40371 3.88452C9.81431 3.94423 9.97813 4.44866 9.68113 4.7381L7.98502 6.39136C7.86715 6.50632 7.81326 6.67207 7.84118 6.83434L8.2415 9.16883C8.31168 9.57769 7.88247 9.88942 7.51529 9.69653L5.41886 8.59442C5.27308 8.51784 5.09879 8.51784 4.95301 8.59442L2.85657 9.69653C2.4894 9.88962 2.06019 9.57769 2.13036 9.16883L2.53069 6.83434C2.55861 6.67207 2.50471 6.50632 2.38684 6.39136L0.690739 4.7381C0.393741 4.44847 0.557555 3.94403 0.968157 3.88452L3.31215 3.5439C3.47519 3.52025 3.61613 3.41789 3.68902 3.27017L4.73724 1.1462C4.92063 0.774182 5.45104 0.774182 5.63463 1.1462Z" fill="#DB9236"/>
</g>
<defs>
<clipPath id="clip0">
<rect width="9.29379" height="9.29379" fill="white" transform="translate(0.539062 0.664062)"/>
</clipPath>
</defs>
</svg>
