<svg width="37" height="37" viewBox="0 0 37 37" fill="none" xmlns="http://www.w3.org/2000/svg">
<path d="M30.6406 4.625H24.2812V3.46875C24.2812 1.5561 22.7252 0 20.8125 0H16.1875C14.2748 0 12.7188 1.5561 12.7188 3.46875V4.625H6.35938C4.76548 4.625 3.46875 5.92173 3.46875 7.51562V11.5625C3.46875 12.201 3.98646 12.7188 4.625 12.7188H5.25689L6.25582 33.6962C6.34405 35.5488 7.86597 37 9.72059 37H27.2794C29.1341 37 30.656 35.5488 30.7442 33.6962L31.7431 12.7188H32.375C33.0135 12.7188 33.5312 12.201 33.5312 11.5625V7.51562C33.5312 5.92173 32.2345 4.625 30.6406 4.625ZM15.0312 3.46875C15.0312 2.83122 15.55 2.3125 16.1875 2.3125H20.8125C21.45 2.3125 21.9688 2.83122 21.9688 3.46875V4.625H15.0312V3.46875ZM5.78125 7.51562C5.78125 7.19686 6.04061 6.9375 6.35938 6.9375H30.6406C30.9594 6.9375 31.2188 7.19686 31.2188 7.51562V10.4062C30.8624 10.4062 7.25785 10.4062 5.78125 10.4062V7.51562ZM28.4343 33.5862C28.4049 34.2038 27.8976 34.6875 27.2794 34.6875H9.72059C9.10236 34.6875 8.59506 34.2038 8.56572 33.5862L7.57199 12.7188H29.428L28.4343 33.5862Z" fill="white"/>
<path d="M18.5 32.375C19.1385 32.375 19.6562 31.8573 19.6562 31.2188V16.1875C19.6562 15.549 19.1385 15.0312 18.5 15.0312C17.8615 15.0312 17.3438 15.549 17.3438 16.1875V31.2188C17.3438 31.8573 17.8614 32.375 18.5 32.375Z" fill="white"/>
<path d="M24.2812 32.375C24.9198 32.375 25.4375 31.8573 25.4375 31.2188V16.1875C25.4375 15.549 24.9198 15.0312 24.2812 15.0312C23.6427 15.0312 23.125 15.549 23.125 16.1875V31.2188C23.125 31.8573 23.6426 32.375 24.2812 32.375Z" fill="white"/>
<path d="M12.7188 32.375C13.3573 32.375 13.875 31.8573 13.875 31.2188V16.1875C13.875 15.549 13.3573 15.0312 12.7188 15.0312C12.0802 15.0312 11.5625 15.549 11.5625 16.1875V31.2188C11.5625 31.8573 12.0801 32.375 12.7188 32.375Z" fill="white"/>
</svg>
